<?xml version="1.0"?>
<svg xmlns="http://www.w3.org/2000/svg" id="outline" viewBox="0 0 512 512" width="24" height="24"><path d="M374.646,323.332l25.29248-202.33984A8.00149,8.00149,0,0,0,392,112h-8V96a40.04584,40.04584,0,0,0-40-40H168a40.04584,40.04584,0,0,0-40,40v16h-8a8.00149,8.00149,0,0,0-7.93848,8.99219L114.31641,139.03a19.4579,19.4579,0,0,0-3.28711,2.62622L68.68652,184H16v16H72a8.00235,8.00235,0,0,0,5.65723-2.34277l44.68652-44.68653A3.31318,3.31318,0,0,1,128,155.31348a30.09135,30.09135,0,0,1-.89746,7.292l-6.86328,27.4541A8,8,0,0,0,128,200h56a8.00917,8.00917,0,0,1,8,8v8H136v16h56v16H136v16h51.69482A32.012,32.012,0,0,1,160,280H16v16H133.9375l10.124,80.99219A8.00065,8.00065,0,0,0,152,384H256v24a48.05375,48.05375,0,0,0,48,48H496V440H304a32.012,32.012,0,0,1-27.69482-16H328V408H272V392h56V376H272v-8a8.00917,8.00917,0,0,1,8-8h56a8,8,0,0,0,7.76074-9.94043l-6.86328-27.4541a30.09135,30.09135,0,0,1-.89746-7.292,3.31318,3.31318,0,0,1,5.65625-2.34278l44.68652,44.68653A8.00235,8.00235,0,0,0,392,360H496V344H395.31348ZM368,96v16H356.47876A23.99228,23.99228,0,0,0,332.4834,88H287.19507a39.8378,39.8378,0,0,0-7.217-16H344A24.0275,24.0275,0,0,1,368,96ZM208,248V200h32a8.00039,8.00039,0,0,0,8-8V112a23.88238,23.88238,0,0,0-1.37622-8h30.61255a8.001,8.001,0,0,1,7.89941,9.26465L257.17871,288H208Zm24-136v40H176V112a8.00917,8.00917,0,0,1,8-8h40A8.00917,8.00917,0,0,1,232,112Zm68.93457,3.792A23.96429,23.96429,0,0,0,299.86035,104H332.4834a7.99984,7.99984,0,0,1,7.84472,9.56836L313.44141,248H279.78149ZM144,96a24.0275,24.0275,0,0,1,24-24h80a24.0384,24.0384,0,0,1,22.62378,16H184a24.0275,24.0275,0,0,0-24,24H144Zm-13.83716,40.80273L129.0625,128H160v56H138.24609l4.37793-17.51367A46.09513,46.09513,0,0,0,144,155.31348,19.33925,19.33925,0,0,0,130.16284,136.80273ZM176,184V168h56v16ZM339.31348,296A19.33544,19.33544,0,0,0,320,315.31348a46.09513,46.09513,0,0,0,1.376,11.17285L325.75391,344H280a24.0275,24.0275,0,0,0-24,24H159.0625l-9-72H160a47.80184,47.80184,0,0,0,32-12.261V296a8.00039,8.00039,0,0,0,8,8h64a8.00011,8.00011,0,0,0,7.89941-6.73633L277.22168,264H320a8,8,0,0,0,7.84473-6.43066L353.75879,128H382.9375L360.31274,308.99854l-7.342-7.34229A19.1897,19.1897,0,0,0,339.31348,296Z"/></svg>
