<svg height="512pt" viewBox="0 -43 512.00003 512" width="512pt" xmlns="http://www.w3.org/2000/svg"><path d="m392.535156 307.199219h102.398438c9.425781 0 17.066406-7.640625 17.066406-17.066407v-273.066406c0-9.425781-7.640625-17.066406-17.066406-17.066406h-358.398438c-9.425781 0-17.070312 7.640625-17.070312 17.066406v102.894532c-3.582032 1.03125-6.054688 4.308593-6.054688 8.039062s2.472656 7.007812 6.054688 8.039062v154.09375c0 9.425782 7.644531 17.066407 17.070312 17.066407h238.929688v25.601562c0 4.710938 3.824218 8.53125 8.535156 8.53125s8.535156-3.820312 8.535156-8.53125zm-256-290.132813h358.398438v146.296875l-75.09375-73.464843c-3.316406-3.253907-8.628906-3.253907-11.945313 0l-62.746093 61.347656-82.320313-80.546875c-3.320313-3.253907-8.628906-3.253907-11.949219 0l-114.34375 111.855469zm0 189.363282 120.316406-117.683594 151.042969 147.753906c3.367188 3.300781 8.773438 3.242188 12.074219-.125 3.296875-3.371094 3.242188-8.777344-.128906-12.078125l-62.472656-61.113281 56.5-55.253906 81.066406 79.300781v102.902343h-358.398438zm0 0"/><path d="m384 358.398438c-4.710938 0-8.535156 3.820312-8.535156 8.535156v34.132812c0 4.714844 3.824218 8.535156 8.535156 8.535156s8.535156-3.820312 8.535156-8.535156v-34.132812c0-4.714844-3.824218-8.535156-8.535156-8.535156zm0 0"/><path d="m124.332031 409.601562c-4.714843 0-8.535156 3.820313-8.535156 8.53125 0 4.714844 3.820313 8.535157 8.535156 8.535157h34.132813c4.710937 0 8.53125-3.820313 8.53125-8.535157 0-4.710937-3.820313-8.53125-8.53125-8.53125zm0 0"/><path d="m8.535156 299.871094c4.710938 0 8.53125-3.820313 8.53125-8.535156v-34.132813c0-4.710937-3.820312-8.535156-8.53125-8.535156-4.714844 0-8.535156 3.824219-8.535156 8.535156v34.132813c0 4.714843 3.820312 8.535156 8.535156 8.535156zm0 0"/><path d="m8.535156 231.601562c4.710938 0 8.53125-3.820312 8.53125-8.53125v-34.132812c0-4.714844-3.820312-8.535156-8.53125-8.535156-4.714844 0-8.535156 3.820312-8.535156 8.535156v34.132812c0 4.710938 3.820312 8.53125 8.535156 8.53125zm0 0"/><path d="m8.535156 163.335938c4.710938 0 8.53125-3.820313 8.53125-8.53125v-18.269532h2.464844c4.714844 0 8.535156-3.824218 8.535156-8.535156s-3.820312-8.535156-8.535156-8.535156h-2.464844c-9.425781 0-17.066406 7.644531-17.066406 17.070312v18.269532c0 4.710937 3.820312 8.53125 8.535156 8.53125zm0 0"/><path d="m17.066406 426.667969h4.863282c4.714843 0 8.535156-3.820313 8.535156-8.535157 0-4.710937-3.820313-8.53125-8.535156-8.53125h-4.863282v-15.863281c0-4.714843-3.820312-8.535156-8.53125-8.535156-4.714844 0-8.535156 3.820313-8.535156 8.535156v15.863281c0 9.425782 7.640625 17.066407 17.066406 17.066407zm0 0"/><path d="m8.535156 368.136719c4.710938 0 8.53125-3.820313 8.53125-8.535157v-34.132812c0-4.710938-3.820312-8.53125-8.53125-8.53125-4.714844 0-8.535156 3.820312-8.535156 8.53125v34.132812c0 4.714844 3.820312 8.535157 8.535156 8.535157zm0 0"/><path d="m260.863281 409.601562c-4.710937 0-8.53125 3.820313-8.53125 8.53125 0 4.714844 3.820313 8.535157 8.53125 8.535157h34.132813c4.714844 0 8.535156-3.820313 8.535156-8.535157 0-4.710937-3.820312-8.53125-8.535156-8.53125zm0 0"/><path d="m329.128906 409.601562c-4.710937 0-8.53125 3.820313-8.53125 8.53125 0 4.714844 3.820313 8.535157 8.53125 8.535157h34.136719c4.710937 0 8.53125-3.820313 8.53125-8.535157 0-4.710937-3.820313-8.53125-8.53125-8.53125zm0 0"/><path d="m192.597656 409.601562c-4.714844 0-8.535156 3.820313-8.535156 8.53125 0 4.714844 3.820312 8.535157 8.535156 8.535157h34.132813c4.714843 0 8.535156-3.820313 8.535156-8.535157 0-4.710937-3.820313-8.53125-8.535156-8.53125zm0 0"/><path d="m56.0625 426.667969h34.136719c4.710937 0 8.53125-3.820313 8.53125-8.535157 0-4.710937-3.820313-8.53125-8.53125-8.53125h-34.136719c-4.710938 0-8.53125 3.820313-8.53125 8.53125 0 4.714844 3.820312 8.535157 8.53125 8.535157zm0 0"/><path d="m87.800781 136.535156c4.710938 0 8.53125-3.824218 8.53125-8.535156s-3.820312-8.535156-8.53125-8.535156h-34.132812c-4.714844 0-8.535157 3.824218-8.535157 8.535156s3.820313 8.535156 8.535157 8.535156zm0 0"/></svg>